<svg xmlns="http://www.w3.org/2000/svg" width="2245.6690234375" height="690.0"><line x1="30.0" x2="2215.6690234375" y1="45.0" y2="45.0" stroke="#1967d2" stroke-width="1" /><line x1="30.0" x2="2215.6690234375" y1="95.0" y2="95.0" stroke="#1967d2" stroke-width="1" /><line x1="30.0" x2="2215.6690234375" y1="145.0" y2="145.0" stroke="#1967d2" stroke-width="1" /><line x1="30.0" x2="2215.6690234375" y1="195.0" y2="195.0" stroke="#1967d2" stroke-width="1" /><line x1="30.0" x2="2215.6690234375" y1="245.0" y2="245.0" stroke="#1967d2" stroke-width="1" /><line x1="30.0" x2="2215.6690234375" y1="295.0" y2="295.0" stroke="#1967d2" stroke-width="1" /><line x1="30.0" x2="2215.6690234375" y1="345.0" y2="345.0" stroke="#1967d2" stroke-width="1" /><line x1="30.0" x2="2215.6690234375" y1="395.0" y2="395.0" stroke="#1967d2" stroke-width="1" /><line x1="30.0" x2="2215.6690234375" y1="445.0" y2="445.0" stroke="#1967d2" stroke-width="1" /><line x1="30.0" x2="2215.6690234375" y1="495.0" y2="495.0" stroke="#1967d2" stroke-width="1" /><line x1="30.0" x2="2215.6690234375" y1="545.0" y2="545.0" stroke="#1967d2" stroke-width="1" /><line x1="30.0" x2="2215.6690234375" y1="595.0" y2="595.0" stroke="#1967d2" stroke-width="1" /><line x1="30.0" x2="2215.6690234375" y1="645.0" y2="645.0" stroke="#1967d2" stroke-width="1" /><line x1="1767.81578125" x2="1879.1873046875" y1="5.0" y2="5.0" stroke="black" stroke-width="1" /><line x1="1767.81578125" x2="1879.1873046875" y1="685.0" y2="685.0" stroke="black" stroke-width="1" /><line x1="1667.81578125" x2="1757.81578125" y1="5.0" y2="5.0" stroke="black" stroke-width="1" /><line x1="1667.81578125" x2="1757.81578125" y1="685.0" y2="685.0" stroke="black" stroke-width="1" /><line x1="1513.2725390625" x2="1657.81578125" y1="5.0" y2="5.0" stroke="black" stroke-width="1" /><line x1="1513.2725390625" x2="1657.81578125" y1="685.0" y2="685.0" stroke="black" stroke-width="1" /><line x1="1307.7171484375" x2="1503.2725390625" y1="5.0" y2="5.0" stroke="black" stroke-width="1" /><line x1="1307.7171484375" x2="1503.2725390625" y1="685.0" y2="685.0" stroke="black" stroke-width="1" /><line x1="1039.3494140625" x2="1297.7171484375" y1="5.0" y2="5.0" stroke="black" stroke-width="1" /><line x1="1039.3494140625" x2="1297.7171484375" y1="685.0" y2="685.0" stroke="black" stroke-width="1" /><line x1="775.4692187500002" x2="1029.3494140625" y1="5.0" y2="5.0" stroke="black" stroke-width="1" /><line x1="775.4692187500002" x2="1029.3494140625" y1="685.0" y2="685.0" stroke="black" stroke-width="1" /><line x1="508.5423046875" x2="765.4692187500002" y1="5.0" y2="5.0" stroke="black" stroke-width="1" /><line x1="508.5423046875" x2="765.4692187500002" y1="685.0" y2="685.0" stroke="black" stroke-width="1" /><line x1="293.585390625" x2="498.5423046875" y1="5.0" y2="5.0" stroke="black" stroke-width="1" /><line x1="293.585390625" x2="498.5423046875" y1="685.0" y2="685.0" stroke="black" stroke-width="1" /><line x1="180.0" x2="283.585390625" y1="5.0" y2="5.0" stroke="black" stroke-width="1" /><line x1="180.0" x2="283.585390625" y1="685.0" y2="685.0" stroke="black" stroke-width="1" /><line x1="150.0" x2="150.0" y1="95.0" y2="395.0" stroke="black" stroke-width="3" /><line x1="200.0" x2="200.0" y1="245.0" y2="395.0" stroke="black" stroke-width="3" /><line x1="246.7926953125" x2="246.7926953125" y1="95.0" y2="495.0" stroke="black" stroke-width="3" /><line x1="324.27115234375003" x2="324.27115234375003" y1="45.0" y2="395.0" stroke="black" stroke-width="3" /><line x1="381.749609375" x2="381.749609375" y1="245.0" y2="445.0" stroke="black" stroke-width="3" /><line x1="428.5423046875" x2="428.5423046875" y1="145.0" y2="495.0" stroke="black" stroke-width="3" /><line x1="468.5423046875" x2="468.5423046875" y1="95.0" y2="545.0" stroke="black" stroke-width="3" /><line x1="528.5423046875001" x2="528.5423046875001" y1="295.0" y2="445.0" stroke="black" stroke-width="3" /><line x1="579.22806640625" x2="579.22806640625" y1="245.0" y2="545.0" stroke="black" stroke-width="3" /><line x1="640.5995898437501" x2="640.5995898437501" y1="95.0" y2="645.0" stroke="black" stroke-width="3" /><line x1="803.8239257812502" x2="803.8239257812502" y1="45.0" y2="445.0" stroke="black" stroke-width="3" /><line x1="858.9713281250001" x2="858.9713281250001" y1="295.0" y2="545.0" stroke="black" stroke-width="3" /><line x1="905.7640234375001" x2="905.7640234375001" y1="245.0" y2="595.0" stroke="black" stroke-width="3" /><line x1="952.5567187500001" x2="952.5567187500001" y1="145.0" y2="645.0" stroke="black" stroke-width="3" /><line x1="1081.44134765625" x2="1081.44134765625" y1="45.0" y2="495.0" stroke="black" stroke-width="3" /><line x1="1143.53328125" x2="1143.53328125" y1="345.0" y2="545.0" stroke="black" stroke-width="3" /><line x1="1183.53328125" x2="1183.53328125" y1="195.0" y2="645.0" stroke="black" stroke-width="3" /><line x1="1327.7171484375" x2="1327.7171484375" y1="45.0" y2="545.0" stroke="black" stroke-width="3" /><line x1="1378.40291015625" x2="1378.40291015625" y1="245.0" y2="645.0" stroke="black" stroke-width="3" /><line x1="1538.4522265625" x2="1538.4522265625" y1="295.0" y2="645.0" stroke="black" stroke-width="3" /><line x1="1538.4522265625" x2="1538.4522265625" y1="95.0" y2="195.0" stroke="black" stroke-width="3" /><line x1="1687.81578125" x2="1687.81578125" y1="345.0" y2="645.0" stroke="black" stroke-width="3" /><line x1="1798.50154296875" x2="1798.50154296875" y1="45.0" y2="645.0" stroke="black" stroke-width="3" /><line x1="1941.27923828125" x2="1941.27923828125" y1="245.0" y2="345.0" stroke="black" stroke-width="3" /><line x1="2147.92390625" x2="2147.92390625" y1="395.0" y2="645.0" stroke="black" stroke-width="3" /><line x1="1767.81578125" x2="1767.81578125" y1="5.0" y2="15.0" stroke="black" stroke-width="3" /><line x1="1879.1873046875" x2="1879.1873046875" y1="5.0" y2="15.0" stroke="black" stroke-width="3" /><line x1="1767.81578125" x2="1767.81578125" y1="675.0" y2="685.0" stroke="black" stroke-width="3" /><line x1="1879.1873046875" x2="1879.1873046875" y1="675.0" y2="685.0" stroke="black" stroke-width="3" /><line x1="1667.81578125" x2="1667.81578125" y1="5.0" y2="15.0" stroke="black" stroke-width="3" /><line x1="1757.81578125" x2="1757.81578125" y1="5.0" y2="15.0" stroke="black" stroke-width="3" /><line x1="1667.81578125" x2="1667.81578125" y1="675.0" y2="685.0" stroke="black" stroke-width="3" /><line x1="1757.81578125" x2="1757.81578125" y1="675.0" y2="685.0" stroke="black" stroke-width="3" /><line x1="1513.2725390625" x2="1513.2725390625" y1="5.0" y2="15.0" stroke="black" stroke-width="3" /><line x1="1657.81578125" x2="1657.81578125" y1="5.0" y2="15.0" stroke="black" stroke-width="3" /><line x1="1513.2725390625" x2="1513.2725390625" y1="675.0" y2="685.0" stroke="black" stroke-width="3" /><line x1="1657.81578125" x2="1657.81578125" y1="675.0" y2="685.0" stroke="black" stroke-width="3" /><line x1="1307.7171484375" x2="1307.7171484375" y1="5.0" y2="15.0" stroke="black" stroke-width="3" /><line x1="1503.2725390625" x2="1503.2725390625" y1="5.0" y2="15.0" stroke="black" stroke-width="3" /><line x1="1307.7171484375" x2="1307.7171484375" y1="675.0" y2="685.0" stroke="black" stroke-width="3" /><line x1="1503.2725390625" x2="1503.2725390625" y1="675.0" y2="685.0" stroke="black" stroke-width="3" /><line x1="1039.3494140625" x2="1039.3494140625" y1="5.0" y2="15.0" stroke="black" stroke-width="3" /><line x1="1297.7171484375" x2="1297.7171484375" y1="5.0" y2="15.0" stroke="black" stroke-width="3" /><line x1="1039.3494140625" x2="1039.3494140625" y1="675.0" y2="685.0" stroke="black" stroke-width="3" /><line x1="1297.7171484375" x2="1297.7171484375" y1="675.0" y2="685.0" stroke="black" stroke-width="3" /><line x1="775.4692187500002" x2="775.4692187500002" y1="5.0" y2="15.0" stroke="black" stroke-width="3" /><line x1="1029.3494140625" x2="1029.3494140625" y1="5.0" y2="15.0" stroke="black" stroke-width="3" /><line x1="775.4692187500002" x2="775.4692187500002" y1="675.0" y2="685.0" stroke="black" stroke-width="3" /><line x1="1029.3494140625" x2="1029.3494140625" y1="675.0" y2="685.0" stroke="black" stroke-width="3" /><line x1="508.5423046875" x2="508.5423046875" y1="5.0" y2="15.0" stroke="black" stroke-width="3" /><line x1="765.4692187500002" x2="765.4692187500002" y1="5.0" y2="15.0" stroke="black" stroke-width="3" /><line x1="508.5423046875" x2="508.5423046875" y1="675.0" y2="685.0" stroke="black" stroke-width="3" /><line x1="765.4692187500002" x2="765.4692187500002" y1="675.0" y2="685.0" stroke="black" stroke-width="3" /><line x1="293.585390625" x2="293.585390625" y1="5.0" y2="15.0" stroke="black" stroke-width="3" /><line x1="498.5423046875" x2="498.5423046875" y1="5.0" y2="15.0" stroke="black" stroke-width="3" /><line x1="293.585390625" x2="293.585390625" y1="675.0" y2="685.0" stroke="black" stroke-width="3" /><line x1="498.5423046875" x2="498.5423046875" y1="675.0" y2="685.0" stroke="black" stroke-width="3" /><line x1="180.0" x2="180.0" y1="5.0" y2="15.0" stroke="black" stroke-width="3" /><line x1="283.585390625" x2="283.585390625" y1="5.0" y2="15.0" stroke="black" stroke-width="3" /><line x1="180.0" x2="180.0" y1="675.0" y2="685.0" stroke="black" stroke-width="3" /><line x1="283.585390625" x2="283.585390625" y1="675.0" y2="685.0" stroke="black" stroke-width="3" /><rect x="10.0" y="25.0" width="40" height="40" stroke="black" fill="white" stroke-width="0" /><text x="30.0" y="45.0" dominant-baseline="middle" text-anchor="middle" font-size="14px">0: </text><rect x="10.0" y="75.0" width="40" height="40" stroke="black" fill="white" stroke-width="0" /><text x="30.0" y="95.0" dominant-baseline="middle" text-anchor="middle" font-size="14px">1: </text><rect x="10.0" y="125.0" width="40" height="40" stroke="black" fill="white" stroke-width="0" /><text x="30.0" y="145.0" dominant-baseline="middle" text-anchor="middle" font-size="14px">2: </text><rect x="10.0" y="175.0" width="40" height="40" stroke="black" fill="white" stroke-width="0" /><text x="30.0" y="195.0" dominant-baseline="middle" text-anchor="middle" font-size="14px">3: </text><rect x="10.0" y="225.0" width="40" height="40" stroke="black" fill="white" stroke-width="0" /><text x="30.0" y="245.0" dominant-baseline="middle" text-anchor="middle" font-size="14px">4: </text><rect x="10.0" y="275.0" width="40" height="40" stroke="black" fill="white" stroke-width="0" /><text x="30.0" y="295.0" dominant-baseline="middle" text-anchor="middle" font-size="14px">5: </text><rect x="10.0" y="325.0" width="40" height="40" stroke="black" fill="white" stroke-width="0" /><text x="30.0" y="345.0" dominant-baseline="middle" text-anchor="middle" font-size="14px">6: </text><rect x="10.0" y="375.0" width="40" height="40" stroke="black" fill="white" stroke-width="0" /><text x="30.0" y="395.0" dominant-baseline="middle" text-anchor="middle" font-size="14px">7: </text><rect x="10.0" y="425.0" width="40" height="40" stroke="black" fill="white" stroke-width="0" /><text x="30.0" y="445.0" dominant-baseline="middle" text-anchor="middle" font-size="14px">8: </text><rect x="10.0" y="475.0" width="40" height="40" stroke="black" fill="white" stroke-width="0" /><text x="30.0" y="495.0" dominant-baseline="middle" text-anchor="middle" font-size="14px">9: </text><rect x="10.0" y="525.0" width="40" height="40" stroke="black" fill="white" stroke-width="0" /><text x="30.0" y="545.0" dominant-baseline="middle" text-anchor="middle" font-size="14px">10: </text><rect x="10.0" y="575.0" width="40" height="40" stroke="black" fill="white" stroke-width="0" /><text x="30.0" y="595.0" dominant-baseline="middle" text-anchor="middle" font-size="14px">11: </text><rect x="10.0" y="625.0" width="40" height="40" stroke="black" fill="white" stroke-width="0" /><text x="30.0" y="645.0" dominant-baseline="middle" text-anchor="middle" font-size="14px">12: </text><rect x="70.0" y="25.0" width="40" height="40" stroke="black" fill="white" stroke-width="1" /><text x="90.0" y="45.0" dominant-baseline="middle" text-anchor="middle" font-size="18px">H</text><rect x="70.0" y="75.0" width="40" height="40" stroke="black" fill="white" stroke-width="1" /><text x="90.0" y="95.0" dominant-baseline="middle" text-anchor="middle" font-size="18px">H</text><rect x="70.0" y="125.0" width="40" height="40" stroke="black" fill="white" stroke-width="1" /><text x="90.0" y="145.0" dominant-baseline="middle" text-anchor="middle" font-size="18px">H</text><rect x="70.0" y="175.0" width="40" height="40" stroke="black" fill="white" stroke-width="1" /><text x="90.0" y="195.0" dominant-baseline="middle" text-anchor="middle" font-size="18px">H</text><rect x="70.0" y="225.0" width="40" height="40" stroke="black" fill="white" stroke-width="1" /><text x="90.0" y="245.0" dominant-baseline="middle" text-anchor="middle" font-size="18px">H</text><rect x="70.0" y="275.0" width="40" height="40" stroke="black" fill="white" stroke-width="1" /><text x="90.0" y="295.0" dominant-baseline="middle" text-anchor="middle" font-size="18px">H</text><rect x="70.0" y="325.0" width="40" height="40" stroke="black" fill="white" stroke-width="1" /><text x="90.0" y="345.0" dominant-baseline="middle" text-anchor="middle" font-size="18px">H</text><rect x="70.0" y="375.0" width="40" height="40" stroke="black" fill="white" stroke-width="1" /><text x="90.0" y="395.0" dominant-baseline="middle" text-anchor="middle" font-size="18px">H</text><rect x="70.0" y="425.0" width="40" height="40" stroke="black" fill="white" stroke-width="1" /><text x="90.0" y="445.0" dominant-baseline="middle" text-anchor="middle" font-size="18px">H</text><rect x="70.0" y="475.0" width="40" height="40" stroke="black" fill="white" stroke-width="1" /><text x="90.0" y="495.0" dominant-baseline="middle" text-anchor="middle" font-size="18px">H</text><rect x="70.0" y="525.0" width="40" height="40" stroke="black" fill="white" stroke-width="1" /><text x="90.0" y="545.0" dominant-baseline="middle" text-anchor="middle" font-size="18px">H</text><rect x="70.0" y="575.0" width="40" height="40" stroke="black" fill="white" stroke-width="1" /><text x="90.0" y="595.0" dominant-baseline="middle" text-anchor="middle" font-size="18px">H</text><rect x="70.0" y="625.0" width="40" height="40" stroke="black" fill="white" stroke-width="1" /><text x="90.0" y="645.0" dominant-baseline="middle" text-anchor="middle" font-size="18px">H</text><circle cx="150.0" cy="95.0" r="10.0" /><circle cx="150.0" cy="395.0" r="10.0" /><circle cx="200.0" cy="245.0" r="10.0" /><circle cx="200.0" cy="395.0" r="10.0" /><circle cx="246.7926953125" cy="95.0" r="10.0" /><rect x="220.0" y="475.0" width="53.585390625" height="40" stroke="black" fill="white" stroke-width="1" /><text x="246.7926953125" y="495.0" dominant-baseline="middle" text-anchor="middle" font-size="14px">@^-0.5</text><circle cx="324.27115234375003" cy="45.0" r="10.0" /><rect x="293.585390625" y="375.0" width="61.37152343750001" height="40" stroke="black" fill="white" stroke-width="1" /><text x="324.27115234375003" y="395.0" dominant-baseline="middle" text-anchor="middle" font-size="14px">@^-0.75</text><circle cx="381.749609375" cy="245.0" r="10.0" /><rect x="354.9569140625" y="425.0" width="53.585390625" height="40" stroke="black" fill="white" stroke-width="1" /><text x="381.749609375" y="445.0" dominant-baseline="middle" text-anchor="middle" font-size="14px">@^-0.5</text><circle cx="428.5423046875" cy="145.0" r="10.0" /><circle cx="428.5423046875" cy="495.0" r="10.0" /><circle cx="468.5423046875" cy="95.0" r="10.0" /><circle cx="468.5423046875" cy="545.0" r="10.0" /><circle cx="528.5423046875001" cy="295.0" r="10.0" /><circle cx="528.5423046875001" cy="445.0" r="10.0" /><circle cx="579.22806640625" cy="245.0" r="10.0" /><rect x="548.5423046875001" y="525.0" width="61.37152343750001" height="40" stroke="black" fill="white" stroke-width="1" /><text x="579.22806640625" y="545.0" dominant-baseline="middle" text-anchor="middle" font-size="14px">@^-0.25</text><circle cx="640.5995898437501" cy="95.0" r="10.0" /><rect x="609.9138281250001" y="625.0" width="61.37152343750001" height="40" stroke="black" fill="white" stroke-width="1" /><text x="640.5995898437501" y="645.0" dominant-baseline="middle" text-anchor="middle" font-size="14px">@^-0.25</text><rect x="671.2853515625002" y="375.0" width="84.18386718750001" height="40" stroke="black" fill="white" stroke-width="1" /><text x="713.3772851562502" y="395.0" dominant-baseline="middle" text-anchor="middle" font-size="14px">Rz(-0.375π)</text><circle cx="803.8239257812502" cy="45.0" r="10.0" /><rect x="775.4692187500002" y="425.0" width="56.7094140625" height="40" stroke="black" fill="white" stroke-width="1" /><text x="803.8239257812502" y="445.0" dominant-baseline="middle" text-anchor="middle" font-size="14px">@^0.25</text><circle cx="858.9713281250001" cy="295.0" r="10.0" /><rect x="832.1786328125002" y="525.0" width="53.585390625" height="40" stroke="black" fill="white" stroke-width="1" /><text x="858.9713281250001" y="545.0" dominant-baseline="middle" text-anchor="middle" font-size="14px">@^-0.5</text><circle cx="905.7640234375001" cy="245.0" r="10.0" /><circle cx="905.7640234375001" cy="595.0" r="10.0" /><circle cx="952.5567187500001" cy="145.0" r="10.0" /><rect x="925.7640234375001" y="625.0" width="53.585390625" height="40" stroke="black" fill="white" stroke-width="1" /><text x="952.5567187500001" y="645.0" dominant-baseline="middle" text-anchor="middle" font-size="14px">@^-0.5</text><rect x="832.1786328125002" y="75.0" width="53.585390625" height="40" stroke="black" fill="white" stroke-width="1" /><text x="858.9713281250001" y="95.0" dominant-baseline="middle" text-anchor="middle" font-size="18px">H</text><rect x="979.3494140625" y="375.0" width="40" height="40" stroke="black" fill="white" stroke-width="1" /><text x="999.3494140625" y="395.0" dominant-baseline="middle" text-anchor="middle" font-size="18px">H</text><circle cx="1081.44134765625" cy="45.0" r="10.0" /><rect x="1039.3494140625" y="475.0" width="84.18386718750001" height="40" stroke="black" fill="white" stroke-width="1" /><text x="1081.44134765625" y="495.0" dominant-baseline="middle" text-anchor="middle" font-size="14px">@^-0.5</text><circle cx="1143.53328125" cy="345.0" r="10.0" /><circle cx="1143.53328125" cy="545.0" r="10.0" /><circle cx="1183.53328125" cy="195.0" r="10.0" /><circle cx="1183.53328125" cy="645.0" r="10.0" /><rect x="1123.53328125" y="125.0" width="40" height="40" stroke="black" fill="white" stroke-width="1" /><text x="1143.53328125" y="145.0" dominant-baseline="middle" text-anchor="middle" font-size="18px">H</text><rect x="1203.53328125" y="425.0" width="84.18386718750001" height="40" stroke="black" fill="white" stroke-width="1" /><text x="1245.62521484375" y="445.0" dominant-baseline="middle" text-anchor="middle" font-size="14px">Rz(-0.375π)</text><rect x="1039.3494140625" y="575.0" width="84.18386718750001" height="40" stroke="black" fill="white" stroke-width="1" /><text x="1081.44134765625" y="595.0" dominant-baseline="middle" text-anchor="middle" font-size="14px">Rz(-0.375π)</text><circle cx="1327.7171484375" cy="45.0" r="10.0" /><circle cx="1327.7171484375" cy="545.0" r="10.0" /><circle cx="1378.40291015625" cy="245.0" r="10.0" /><rect x="1347.7171484375" y="625.0" width="61.37152343750001" height="40" stroke="black" fill="white" stroke-width="1" /><text x="1378.40291015625" y="645.0" dominant-baseline="middle" text-anchor="middle" font-size="14px">@^-0.75</text><rect x="1347.7171484375" y="175.0" width="61.37152343750001" height="40" stroke="black" fill="white" stroke-width="1" /><text x="1378.40291015625" y="195.0" dominant-baseline="middle" text-anchor="middle" font-size="18px">H</text><rect x="1409.088671875" y="425.0" width="84.18386718750001" height="40" stroke="black" fill="white" stroke-width="1" /><text x="1451.18060546875" y="445.0" dominant-baseline="middle" text-anchor="middle" font-size="18px">H</text><rect x="1409.088671875" y="475.0" width="84.18386718750001" height="40" stroke="black" fill="white" stroke-width="1" /><text x="1451.18060546875" y="495.0" dominant-baseline="middle" text-anchor="middle" font-size="14px">Rz(-0.375π)</text><rect x="1307.7171484375" y="575.0" width="40" height="40" stroke="black" fill="white" stroke-width="1" /><text x="1327.7171484375" y="595.0" dominant-baseline="middle" text-anchor="middle" font-size="18px">H</text><circle cx="1538.4522265625" cy="295.0" r="10.0" /><rect x="1513.2725390625" y="625.0" width="50.35937500000001" height="40" stroke="black" fill="white" stroke-width="1" /><text x="1538.4522265625" y="645.0" dominant-baseline="middle" text-anchor="middle" font-size="14px">@^0.5</text><rect x="1513.2725390625" y="225.0" width="50.35937500000001" height="40" stroke="black" fill="white" stroke-width="1" /><text x="1538.4522265625" y="245.0" dominant-baseline="middle" text-anchor="middle" font-size="18px">H</text><rect x="1563.6319140625" y="475.0" width="84.18386718750001" height="40" stroke="black" fill="white" stroke-width="1" /><text x="1605.72384765625" y="495.0" dominant-baseline="middle" text-anchor="middle" font-size="18px">H</text><rect x="1563.6319140625" y="525.0" width="84.18386718750001" height="40" stroke="black" fill="white" stroke-width="1" /><text x="1605.72384765625" y="545.0" dominant-baseline="middle" text-anchor="middle" font-size="14px">Rz(-0.375π)</text><rect x="1513.2725390625" y="75.0" width="50.35937500000001" height="40" stroke="black" fill="white" stroke-width="1" /><text x="1538.4522265625" y="95.0" dominant-baseline="middle" text-anchor="middle" font-size="14px">M('d0')</text><rect x="1513.2725390625" y="125.0" width="50.35937500000001" height="40" stroke="black" fill="white" stroke-width="1" /><text x="1538.4522265625" y="145.0" dominant-baseline="middle" text-anchor="middle" font-size="18px">M</text><rect x="1513.2725390625" y="175.0" width="50.35937500000001" height="40" stroke="black" fill="white" stroke-width="1" /><text x="1538.4522265625" y="195.0" dominant-baseline="middle" text-anchor="middle" font-size="18px">M</text><circle cx="1687.81578125" cy="345.0" r="10.0" /><circle cx="1687.81578125" cy="645.0" r="10.0" /><rect x="1667.81578125" y="275.0" width="40" height="40" stroke="black" fill="white" stroke-width="1" /><text x="1687.81578125" y="295.0" dominant-baseline="middle" text-anchor="middle" font-size="18px">H</text><rect x="1707.81578125" y="525.0" width="40" height="40" stroke="black" fill="white" stroke-width="1" /><text x="1727.81578125" y="545.0" dominant-baseline="middle" text-anchor="middle" font-size="18px">H</text><circle cx="1798.50154296875" cy="45.0" r="10.0" /><rect x="1767.81578125" y="625.0" width="61.37152343750001" height="40" stroke="black" fill="white" stroke-width="1" /><text x="1798.50154296875" y="645.0" dominant-baseline="middle" text-anchor="middle" font-size="14px">@^-0.25</text><rect x="1829.1873046875" y="325.0" width="40" height="40" stroke="black" fill="white" stroke-width="1" /><text x="1849.1873046875" y="345.0" dominant-baseline="middle" text-anchor="middle" font-size="18px">H</text><rect x="1899.1873046875" y="25.0" width="84.18386718750001" height="40" stroke="black" fill="white" stroke-width="1" /><text x="1941.27923828125" y="45.0" dominant-baseline="middle" text-anchor="middle" font-size="18px">H</text><rect x="1899.1873046875" y="625.0" width="84.18386718750001" height="40" stroke="black" fill="white" stroke-width="1" /><text x="1941.27923828125" y="645.0" dominant-baseline="middle" text-anchor="middle" font-size="14px">Rz(-0.375π)</text><rect x="1899.1873046875" y="225.0" width="84.18386718750001" height="40" stroke="black" fill="white" stroke-width="1" /><text x="1941.27923828125" y="245.0" dominant-baseline="middle" text-anchor="middle" font-size="14px">M('d1')</text><rect x="1899.1873046875" y="275.0" width="84.18386718750001" height="40" stroke="black" fill="white" stroke-width="1" /><text x="1941.27923828125" y="295.0" dominant-baseline="middle" text-anchor="middle" font-size="18px">M</text><rect x="1899.1873046875" y="325.0" width="84.18386718750001" height="40" stroke="black" fill="white" stroke-width="1" /><text x="1941.27923828125" y="345.0" dominant-baseline="middle" text-anchor="middle" font-size="18px">M</text><rect x="2003.371171875" y="625.0" width="76.8076171875" height="40" stroke="black" fill="white" stroke-width="1" /><text x="2041.77498046875" y="645.0" dominant-baseline="middle" text-anchor="middle" font-size="18px">H</text><rect x="2003.371171875" y="25.0" width="76.8076171875" height="40" stroke="black" fill="white" stroke-width="1" /><text x="2041.77498046875" y="45.0" dominant-baseline="middle" text-anchor="middle" font-size="14px">M('bMeas')</text><rect x="2100.1787890625" y="375.0" width="95.49023437500001" height="40" stroke="black" fill="white" stroke-width="1" /><text x="2147.92390625" y="395.0" dominant-baseline="middle" text-anchor="middle" font-size="14px">M('roundRes')</text><rect x="2100.1787890625" y="425.0" width="95.49023437500001" height="40" stroke="black" fill="white" stroke-width="1" /><text x="2147.92390625" y="445.0" dominant-baseline="middle" text-anchor="middle" font-size="18px">M</text><rect x="2100.1787890625" y="475.0" width="95.49023437500001" height="40" stroke="black" fill="white" stroke-width="1" /><text x="2147.92390625" y="495.0" dominant-baseline="middle" text-anchor="middle" font-size="18px">M</text><rect x="2100.1787890625" y="525.0" width="95.49023437500001" height="40" stroke="black" fill="white" stroke-width="1" /><text x="2147.92390625" y="545.0" dominant-baseline="middle" text-anchor="middle" font-size="18px">M</text><rect x="2100.1787890625" y="575.0" width="95.49023437500001" height="40" stroke="black" fill="white" stroke-width="1" /><text x="2147.92390625" y="595.0" dominant-baseline="middle" text-anchor="middle" font-size="18px">M</text><rect x="2100.1787890625" y="625.0" width="95.49023437500001" height="40" stroke="black" fill="white" stroke-width="1" /><text x="2147.92390625" y="645.0" dominant-baseline="middle" text-anchor="middle" font-size="18px">M</text></svg>